%TF.GenerationSoftware,KiCad,Pcbnew,(5.1.8-0-10_14)*%
%TF.CreationDate,2021-07-21T14:33:58-04:00*%
%TF.ProjectId,PSX2USB,50535832-5553-4422-9e6b-696361645f70,rev?*%
%TF.SameCoordinates,Original*%
%TF.FileFunction,Copper,L2,Bot*%
%TF.FilePolarity,Positive*%
%FSLAX46Y46*%
G04 Gerber Fmt 4.6, Leading zero omitted, Abs format (unit mm)*
G04 Created by KiCad (PCBNEW (5.1.8-0-10_14)) date 2021-07-21 14:33:58*
%MOMM*%
%LPD*%
G01*
G04 APERTURE LIST*
%TA.AperFunction,ComponentPad*%
%ADD10C,2.000000*%
%TD*%
%TA.AperFunction,ComponentPad*%
%ADD11C,1.750000*%
%TD*%
%TA.AperFunction,ViaPad*%
%ADD12C,0.800000*%
%TD*%
%TA.AperFunction,Conductor*%
%ADD13C,0.250000*%
%TD*%
G04 APERTURE END LIST*
D10*
%TO.P,P1,7*%
%TO.N,Net-(P1-Pad7)*%
X160794240Y-101046280D03*
%TO.P,P1,6*%
%TO.N,Net-(P1-Pad6)*%
X156794240Y-101046280D03*
%TO.P,P1,5*%
%TO.N,Net-(P1-Pad5)*%
X152794240Y-101046280D03*
%TO.P,P1,4*%
%TO.N,Net-(P1-Pad4)*%
X148794240Y-101046280D03*
%TO.P,P1,3*%
%TO.N,Net-(P1-Pad3)*%
X144794240Y-101046280D03*
%TO.P,P1,2*%
%TO.N,Net-(P1-Pad2)*%
X140794240Y-101046280D03*
%TO.P,P1,1*%
%TO.N,Net-(P1-Pad1)*%
X136794240Y-101046280D03*
%TD*%
%TO.P,P2,103*%
%TO.N,Net-(P1-Pad3)*%
%TA.AperFunction,ComponentPad*%
G36*
G01*
X132914420Y-105954280D02*
X132914420Y-104304280D01*
G75*
G02*
X133089420Y-104129280I175000J0D01*
G01*
X134489420Y-104129280D01*
G75*
G02*
X134664420Y-104304280I0J-175000D01*
G01*
X134664420Y-105954280D01*
G75*
G02*
X134489420Y-106129280I-175000J0D01*
G01*
X133089420Y-106129280D01*
G75*
G02*
X132914420Y-105954280I0J175000D01*
G01*
G37*
%TD.AperFunction*%
D11*
X133789420Y-105999280D03*
%TO.P,P2,102*%
%TO.N,Net-(P1-Pad4)*%
X136329420Y-105999280D03*
%TO.P,P2,101*%
%TO.N,Net-(P1-Pad5)*%
X141409420Y-105999280D03*
%TO.P,P2,15*%
%TO.N,Net-(P1-Pad7)*%
X154109420Y-105999280D03*
%TO.P,P2,14*%
%TO.N,Net-(P1-Pad1)*%
X156649420Y-105999280D03*
%TO.P,P2,16*%
%TO.N,Net-(P1-Pad2)*%
X159189420Y-105999280D03*
%TO.P,P2,10*%
%TO.N,Net-(P1-Pad6)*%
X161729420Y-105999280D03*
%TO.P,P2,102*%
%TO.N,Net-(P1-Pad4)*%
%TA.AperFunction,ComponentPad*%
G36*
G01*
X135454420Y-105954280D02*
X135454420Y-104304280D01*
G75*
G02*
X135629420Y-104129280I175000J0D01*
G01*
X137029420Y-104129280D01*
G75*
G02*
X137204420Y-104304280I0J-175000D01*
G01*
X137204420Y-105954280D01*
G75*
G02*
X137029420Y-106129280I-175000J0D01*
G01*
X135629420Y-106129280D01*
G75*
G02*
X135454420Y-105954280I0J175000D01*
G01*
G37*
%TD.AperFunction*%
%TO.P,P2,101*%
%TO.N,Net-(P1-Pad5)*%
%TA.AperFunction,ComponentPad*%
G36*
G01*
X140534420Y-105954280D02*
X140534420Y-104304280D01*
G75*
G02*
X140709420Y-104129280I175000J0D01*
G01*
X142109420Y-104129280D01*
G75*
G02*
X142284420Y-104304280I0J-175000D01*
G01*
X142284420Y-105954280D01*
G75*
G02*
X142109420Y-106129280I-175000J0D01*
G01*
X140709420Y-106129280D01*
G75*
G02*
X140534420Y-105954280I0J175000D01*
G01*
G37*
%TD.AperFunction*%
%TO.P,P2,15*%
%TO.N,Net-(P1-Pad7)*%
%TA.AperFunction,ComponentPad*%
G36*
G01*
X153234420Y-105954280D02*
X153234420Y-104304280D01*
G75*
G02*
X153409420Y-104129280I175000J0D01*
G01*
X154809420Y-104129280D01*
G75*
G02*
X154984420Y-104304280I0J-175000D01*
G01*
X154984420Y-105954280D01*
G75*
G02*
X154809420Y-106129280I-175000J0D01*
G01*
X153409420Y-106129280D01*
G75*
G02*
X153234420Y-105954280I0J175000D01*
G01*
G37*
%TD.AperFunction*%
%TO.P,P2,14*%
%TO.N,Net-(P1-Pad1)*%
%TA.AperFunction,ComponentPad*%
G36*
G01*
X155774420Y-105954280D02*
X155774420Y-104304280D01*
G75*
G02*
X155949420Y-104129280I175000J0D01*
G01*
X157349420Y-104129280D01*
G75*
G02*
X157524420Y-104304280I0J-175000D01*
G01*
X157524420Y-105954280D01*
G75*
G02*
X157349420Y-106129280I-175000J0D01*
G01*
X155949420Y-106129280D01*
G75*
G02*
X155774420Y-105954280I0J175000D01*
G01*
G37*
%TD.AperFunction*%
%TO.P,P2,16*%
%TO.N,Net-(P1-Pad2)*%
%TA.AperFunction,ComponentPad*%
G36*
G01*
X158314420Y-105954280D02*
X158314420Y-104304280D01*
G75*
G02*
X158489420Y-104129280I175000J0D01*
G01*
X159889420Y-104129280D01*
G75*
G02*
X160064420Y-104304280I0J-175000D01*
G01*
X160064420Y-105954280D01*
G75*
G02*
X159889420Y-106129280I-175000J0D01*
G01*
X158489420Y-106129280D01*
G75*
G02*
X158314420Y-105954280I0J175000D01*
G01*
G37*
%TD.AperFunction*%
%TO.P,P2,10*%
%TO.N,Net-(P1-Pad6)*%
%TA.AperFunction,ComponentPad*%
G36*
G01*
X160854420Y-105954280D02*
X160854420Y-104304280D01*
G75*
G02*
X161029420Y-104129280I175000J0D01*
G01*
X162429420Y-104129280D01*
G75*
G02*
X162604420Y-104304280I0J-175000D01*
G01*
X162604420Y-105954280D01*
G75*
G02*
X162429420Y-106129280I-175000J0D01*
G01*
X161029420Y-106129280D01*
G75*
G02*
X160854420Y-105954280I0J175000D01*
G01*
G37*
%TD.AperFunction*%
%TD*%
D12*
%TO.N,Net-(P1-Pad1)*%
X150710900Y-104660700D03*
%TD*%
D13*
%TO.N,Net-(P1-Pad1)*%
X149141180Y-104660700D02*
X150710900Y-104660700D01*
X147772120Y-103291640D02*
X149141180Y-104660700D01*
X139039600Y-103291640D02*
X147772120Y-103291640D01*
X136794240Y-101046280D02*
X139039600Y-103291640D01*
X156651960Y-103708200D02*
X156651960Y-104957880D01*
X156651960Y-104957880D02*
X156641800Y-104968040D01*
X156232860Y-103289100D02*
X156651960Y-103708200D01*
X152082500Y-103289100D02*
X156232860Y-103289100D01*
X150710900Y-104660700D02*
X152082500Y-103289100D01*
%TO.N,Net-(P1-Pad2)*%
X159189420Y-103718360D02*
X158059120Y-102588060D01*
X159189420Y-104993440D02*
X159189420Y-103718360D01*
X142369540Y-102588060D02*
X140812520Y-101031040D01*
X158059120Y-102588060D02*
X142369540Y-102588060D01*
X159184340Y-104998520D02*
X159189420Y-104993440D01*
%TO.N,Net-(P1-Pad6)*%
X161729420Y-104993440D02*
X161754820Y-105018840D01*
X158518860Y-101046280D02*
X161729420Y-104256840D01*
X161729420Y-104256840D02*
X161729420Y-104993440D01*
X156794240Y-101046280D02*
X158518860Y-101046280D01*
%TD*%
M02*
