M48
; DRILL file {KiCad (5.1.8-0-10_14)} date Wednesday, July 21, 2021 at 02:34:00 PM
; FORMAT={-:-/ absolute / inch / decimal}
; #@! TF.CreationDate,2021-07-21T14:34:00-04:00
; #@! TF.GenerationSoftware,Kicad,Pcbnew,(5.1.8-0-10_14)
FMAT,2
INCH
T1C0.0118
T2C0.0157
T3C0.0394
%
G90
G05
T1
X5.2673Y-4.1134
X5.3673Y-4.1134
X5.5673Y-4.1134
X6.0673Y-4.1134
X6.1673Y-4.1134
X6.2673Y-4.1134
X6.3673Y-4.1134
T2
X5.9335Y-4.1205
T3
X5.3856Y-3.9782
X5.5431Y-3.9782
X5.7006Y-3.9782
X5.858Y-3.9782
X6.0155Y-3.9782
X6.173Y-3.9782
X6.3305Y-3.9782
X5.2673Y-4.1732
X5.3673Y-4.1732
X5.5673Y-4.1732
X6.0673Y-4.1732
X6.1673Y-4.1732
X6.2673Y-4.1732
X6.3673Y-4.1732
T0
M30
